<svg width="130" height="130" viewBox="0 0 130 130" fill="none" xmlns="http://www.w3.org/2000/svg">
<rect width="130" height="130" rx="20" fill="white"/>
<path d="M100 65C100 84.33 84.33 100 65 100M100 65C100 45.67 84.33 30 65 30M100 65H30M65 100C45.67 100 30 84.33 30 65M65 100C73.7545 90.4158 78.7296 77.9779 79 65C78.7296 52.0221 73.7545 39.5842 65 30M65 100C56.2455 90.4158 51.2704 77.9779 51 65C51.2704 52.0221 56.2455 39.5842 65 30M30 65C30 45.67 45.67 30 65 30" stroke="#8F1812" stroke-width="5" stroke-linecap="round" stroke-linejoin="round"/>
</svg>
