<svg width="40" height="40" viewBox="0 0 40 40" fill="none" xmlns="http://www.w3.org/2000/svg">
<rect x="1" y="1" width="38" height="38" rx="19" fill="white" stroke="white" stroke-width="2"/>
<path fill-rule="evenodd" clip-rule="evenodd" d="M26.9274 12.1188C28.0099 11.6653 29.1703 12.576 28.9792 13.7291L26.7216 27.3477C26.5039 28.6608 25.0544 29.4143 23.8436 28.7599C22.8304 28.2124 21.3272 27.3696 19.9724 26.4888C19.2959 26.049 17.2244 24.6387 17.479 23.6348C17.6967 22.7764 21.1791 19.5512 23.1691 17.6331C23.9508 16.8797 23.5948 16.4444 22.6716 17.1381C20.3815 18.859 16.7048 21.4754 15.489 22.2117C14.4162 22.8613 13.8561 22.9722 13.188 22.8613C11.968 22.6591 10.837 22.3458 9.91352 21.965C8.66542 21.4502 8.72622 19.7437 9.91267 19.2467L26.9274 12.1188Z" fill="black"/>
</svg>
