<svg width="40" height="40" viewBox="0 0 40 40" fill="none" xmlns="http://www.w3.org/2000/svg">
<rect x="1" y="1" width="38" height="38" rx="19" fill="white" stroke="white" stroke-width="2"/>
<path d="M24 11C26.7614 11 29 13.2386 29 16V24C29 26.7614 26.7614 29 24 29H16C13.2386 29 11 26.7614 11 24V16C11 13.2386 13.2386 11 16 11H24ZM20 16C17.7909 16 16 17.7909 16 20C16 22.2091 17.7909 24 20 24C22.2091 24 24 22.2091 24 20C24 17.7909 22.2091 16 20 16ZM20 18C21.1046 18 22 18.8954 22 20C22 21.1046 21.1046 22 20 22C18.8954 22 18 21.1046 18 20C18 18.8954 18.8954 18 20 18ZM24.5 14.5C23.9477 14.5 23.5 14.9477 23.5 15.5C23.5 16.0523 23.9477 16.5 24.5 16.5C25.0523 16.5 25.5 16.0523 25.5 15.5C25.5 14.9477 25.0523 14.5 24.5 14.5Z" fill="black"/>
</svg>
