<svg width="40" height="40" viewBox="0 0 40 40" fill="none" xmlns="http://www.w3.org/2000/svg">
<rect x="1" y="1" width="38" height="38" rx="19" fill="white" stroke="white" stroke-width="2"/>
<path fill-rule="evenodd" clip-rule="evenodd" d="M20 12C20.8554 12 21.7316 12.0224 22.5817 12.0578L23.5861 12.1058L24.5475 12.1626L25.4476 12.2245L26.2685 12.2879C28.1065 12.437 29.5836 13.8594 29.7633 15.7111L29.8031 16.1356L29.8781 17.0456C29.9482 17.9888 30 19.0173 30 20C30 20.9827 29.9482 22.0112 29.8781 22.9544L29.8031 23.8644C29.79 24.0097 29.7767 24.1514 29.7633 24.2889C29.5836 26.1406 28.1065 27.563 26.2685 27.7121L25.4476 27.7755L24.5475 27.8374L23.5861 27.8942L22.5817 27.9422C21.7316 27.9776 20.8554 28 20 28C19.1446 28 18.2684 27.9776 17.4183 27.9422L16.4139 27.8942L15.4525 27.8374L14.5524 27.7755L13.7315 27.7121C11.8935 27.563 10.4164 26.1406 10.2367 24.2889L10.1969 23.8644L10.1219 22.9544C10.0518 22.0112 10 20.9827 10 20C10 19.0173 10.0518 17.9888 10.1219 17.0456L10.1969 16.1356C10.21 15.9903 10.2233 15.8486 10.2367 15.7111C10.4164 13.8594 11.8935 12.437 13.7315 12.2879L14.5524 12.2245L15.4525 12.1626L16.4139 12.1058L17.4183 12.0578C18.2684 12.0224 19.1446 12 20 12ZM18 17.5751V22.4249C18 22.8868 18.5 23.1754 18.9 22.9445L23.1 20.5196C23.5 20.2887 23.5 19.7113 23.1 19.4804L18.9 17.0555C18.5 16.8246 18 17.1133 18 17.5751Z" fill="black"/>
</svg>
