<svg width="130" height="130" viewBox="0 0 130 130" fill="none" xmlns="http://www.w3.org/2000/svg">
<rect width="130" height="130" rx="20" fill="#FFE3DC"/>
<path d="M90.7143 67.1812V77.8804H39.2857V43.6427H60.7143V39.363H39.2857C38.1491 39.363 37.059 39.8139 36.2553 40.6165C35.4515 41.4191 35 42.5077 35 43.6427V77.8804C35 79.0155 35.4515 80.104 36.2553 80.9066C37.059 81.7092 38.1491 82.1601 39.2857 82.1601H56.4286V90.7196H47.8571V94.9993H82.1429V90.7196H73.5714V82.1601H90.7143C91.8509 82.1601 92.941 81.7092 93.7447 80.9066C94.5485 80.104 95 79.0155 95 77.8804V67.1812H90.7143ZM69.2857 90.7196H60.7143V82.1601H69.2857V90.7196Z" fill="#992439"/>
<path d="M95 52.1426V47.8569H90.4979C90.2215 46.5155 89.6889 45.24 88.9293 44.1005L92.1221 40.9076L89.0921 37.8776L85.8993 41.0705C84.7597 40.3108 83.4842 39.7782 82.1429 39.5019V34.9998H77.8571V39.5019C76.5158 39.7782 75.2403 40.3108 74.1007 41.0705L70.9079 37.8776L67.8779 40.9076L71.0707 44.1005C70.3111 45.24 69.7785 46.5155 69.5021 47.8569H65V52.1426H69.5021C69.7785 53.484 70.3111 54.7594 71.0707 55.899L67.8779 59.0918L70.9079 62.1218L74.1007 58.929C75.2403 59.6886 76.5158 60.2212 77.8571 60.4976V64.9997H82.1429V60.4976C83.4842 60.2212 84.7597 59.6886 85.8993 58.929L89.0921 62.1218L92.1221 59.0918L88.9293 55.899C89.6889 54.7594 90.2215 53.484 90.4979 52.1426H95ZM80 56.4283C78.7285 56.4283 77.4857 56.0513 76.4285 55.3449C75.3713 54.6385 74.5473 53.6345 74.0608 52.4598C73.5742 51.2852 73.4469 49.9926 73.695 48.7456C73.943 47.4986 74.5553 46.3531 75.4543 45.454C76.3534 44.555 77.4988 43.9427 78.7458 43.6947C79.9929 43.4466 81.2854 43.5739 82.4601 44.0605C83.6348 44.5471 84.6388 45.371 85.3452 46.4282C86.0515 47.4854 86.4286 48.7283 86.4286 49.9997C86.4269 51.7042 85.749 53.3383 84.5438 54.5435C83.3386 55.7487 81.7044 56.4266 80 56.4283Z" fill="#992439"/>
</svg>
