<svg width="30" height="30" viewBox="0 0 30 30" fill="none" xmlns="http://www.w3.org/2000/svg">
<path d="M26.1 12.4781C26.1 20.7826 15.3 27.9008 15.3 27.9008C15.3 27.9008 4.5 20.7826 4.5 12.4781C4.5 9.64627 5.63785 6.93046 7.66325 4.92808C9.68864 2.9257 12.4357 1.80078 15.3 1.80078C18.1643 1.80078 20.9114 2.9257 22.9368 4.92808C24.9621 6.93046 26.1 9.64627 26.1 12.4781Z" fill="#BBBBBB"/>
<path d="M15.3 16.0371C17.2882 16.0371 18.9 14.4437 18.9 12.4781C18.9 10.5124 17.2882 8.91896 15.3 8.91896C13.3118 8.91896 11.7 10.5124 11.7 12.4781C11.7 14.4437 13.3118 16.0371 15.3 16.0371Z" fill="#BBBBBB"/>
<path d="M26.1 12.4781C26.1 20.7826 15.3 27.9008 15.3 27.9008C15.3 27.9008 4.5 20.7826 4.5 12.4781C4.5 9.64627 5.63785 6.93046 7.66325 4.92808C9.68864 2.9257 12.4357 1.80078 15.3 1.80078C18.1643 1.80078 20.9114 2.9257 22.9368 4.92808C24.9621 6.93046 26.1 9.64627 26.1 12.4781Z" stroke="black" stroke-width="2" stroke-linecap="round" stroke-linejoin="round"/>
<path d="M15.3 16.0371C17.2882 16.0371 18.9 14.4437 18.9 12.4781C18.9 10.5124 17.2882 8.91896 15.3 8.91896C13.3118 8.91896 11.7 10.5124 11.7 12.4781C11.7 14.4437 13.3118 16.0371 15.3 16.0371Z" stroke="black" stroke-width="2" stroke-linecap="round" stroke-linejoin="round"/>
</svg>
