<svg width="130" height="130" viewBox="0 0 130 130" fill="none" xmlns="http://www.w3.org/2000/svg">
<rect width="130" height="130" fill="#B7B7B7"/>
<g clip-path="url(#clip0_0_1)">
<rect x="-1305" y="-2983" width="1920" height="6065" rx="5" fill="#FCFCFC"/>
<rect x="-1325" y="-405" width="1920" height="1355" fill="white"/>
<g filter="url(#filter0_d_0_1)">
<rect x="-35" y="-35" width="550" height="400" rx="20" fill="white"/>
</g>
<rect width="130" height="130" rx="20" fill="#FFE3DC"/>
<path d="M77.7227 53.0057C79.3967 54.582 80.7246 56.4539 81.6306 58.5144C82.5367 60.575 83.003 62.7836 83.003 65.0141C83.003 67.2447 82.5367 69.4533 81.6306 71.5138C80.7246 73.5743 79.3967 75.4463 77.7227 77.0226M52.2773 76.9943C50.6034 75.418 49.2754 73.5461 48.3694 71.4856C47.4633 69.425 46.997 67.2164 46.997 64.9859C46.997 62.7553 47.4633 60.5467 48.3694 58.4862C49.2754 56.4257 50.6034 54.5537 52.2773 52.9774M86.2145 45C91.8399 50.3049 95 57.4989 95 65C95 72.5011 91.8399 79.6951 86.2145 85M43.7855 85C38.1601 79.6951 35 72.5011 35 65C35 57.4989 38.1601 50.3049 43.7855 45M71.0013 65C71.0013 68.1247 68.3144 70.6577 65 70.6577C61.6856 70.6577 58.9987 68.1247 58.9987 65C58.9987 61.8753 61.6856 59.3423 65 59.3423C68.3144 59.3423 71.0013 61.8753 71.0013 65Z" stroke="#992439" stroke-width="5" stroke-linecap="round" stroke-linejoin="round"/>
</g>
<defs>
<filter id="filter0_d_0_1" x="-39" y="-39" width="558" height="408" filterUnits="userSpaceOnUse" color-interpolation-filters="sRGB">
<feFlood flood-opacity="0" result="BackgroundImageFix"/>
<feColorMatrix in="SourceAlpha" type="matrix" values="0 0 0 0 0 0 0 0 0 0 0 0 0 0 0 0 0 0 127 0" result="hardAlpha"/>
<feOffset/>
<feGaussianBlur stdDeviation="2"/>
<feComposite in2="hardAlpha" operator="out"/>
<feColorMatrix type="matrix" values="0 0 0 0 0.321569 0 0 0 0 0.321569 0 0 0 0 0.321569 0 0 0 0.25 0"/>
<feBlend mode="normal" in2="BackgroundImageFix" result="effect1_dropShadow_0_1"/>
<feBlend mode="normal" in="SourceGraphic" in2="effect1_dropShadow_0_1" result="shape"/>
</filter>
<clipPath id="clip0_0_1">
<rect x="-1305" y="-2983" width="1920" height="6065" rx="5" fill="white"/>
</clipPath>
</defs>
</svg>
