<svg width="30" height="30" viewBox="0 0 30 30" fill="none" xmlns="http://www.w3.org/2000/svg">
<path d="M25.0008 13.7487H27.5008C27.5008 7.33625 22.6595 2.5 16.2383 2.5V5C21.3158 5 25.0008 8.67875 25.0008 13.7487Z" fill="#BBBBBB"/>
<path d="M16.2504 9.99883C18.8791 9.99883 20.0004 11.1201 20.0004 13.7488H22.5004C22.5004 9.71758 20.2816 7.49883 16.2504 7.49883V9.99883ZM20.5279 16.8026C20.2877 16.5843 19.972 16.4678 19.6476 16.4779C19.3232 16.4879 19.0154 16.6236 18.7891 16.8563L15.7979 19.9326C15.0779 19.7951 13.6304 19.3438 12.1404 17.8576C10.6504 16.3663 10.1991 14.9151 10.0654 14.2001L13.1391 11.2076C13.3721 10.9815 13.508 10.6736 13.5181 10.3491C13.5281 10.0246 13.4115 9.70889 13.1929 9.46883L8.5741 4.39008C8.35541 4.14928 8.05145 4.00321 7.72679 3.98291C7.40214 3.9626 7.08235 4.06966 6.83535 4.28133L4.12285 6.60758C3.90674 6.82448 3.77775 7.11315 3.76035 7.41883C3.7416 7.73133 3.3841 15.1338 9.1241 20.8763C14.1316 25.8826 20.4041 26.2488 22.1316 26.2488C22.3841 26.2488 22.5391 26.2413 22.5804 26.2388C22.886 26.2217 23.1745 26.0922 23.3904 25.8751L25.7154 23.1613C25.9272 22.9145 26.0345 22.5948 26.0144 22.2701C25.9943 21.9455 25.8485 21.6415 25.6079 21.4226L20.5279 16.8026Z" fill="#BBBBBB"/>
</svg>
