<svg width="130" height="130" viewBox="0 0 130 130" fill="none" xmlns="http://www.w3.org/2000/svg">
<rect width="130" height="130" rx="20" fill="#FFE3DC"/>
<path d="M51.1111 62V50C51.1111 46.0218 52.5744 42.2064 55.1791 39.3934C57.7837 36.5804 61.3164 35 65 35C68.6836 35 72.2163 36.5804 74.8209 39.3934C77.4256 42.2064 78.8889 46.0218 78.8889 50V62M45.5556 62H84.4444C87.5127 62 90 64.6863 90 68V89C90 92.3137 87.5127 95 84.4444 95H45.5556C42.4873 95 40 92.3137 40 89V68C40 64.6863 42.4873 62 45.5556 62Z" stroke="#992439" stroke-width="5" stroke-linecap="round" stroke-linejoin="round"/>
</svg>
